<svg width="27" height="28" viewBox="0 0 27 28" fill="none" xmlns="http://www.w3.org/2000/svg">
<path d="M0.623748 11.4852H1.49044C1.8994 11.4842 2.28431 11.287 2.53045 10.9524L3.44043 9.70939H4.9571C10.5381 9.70939 13.8137 10.1493 15.1641 11.0881C15.0169 11.163 14.9238 11.3168 14.9238 11.4852V13.261C14.9238 13.5062 15.1178 13.7049 15.3571 13.7049H16.585C16.6186 13.9692 16.6402 14.2632 16.65 14.5928H15.3571C15.1177 14.5928 14.9238 14.7916 14.9238 15.0368V16.8126C14.9238 17.0578 15.1178 17.2565 15.3571 17.2565H16.3729C16.2427 17.7983 16.0631 18.3264 15.8362 18.8337C15.7606 18.9886 15.7798 19.1744 15.8853 19.3096L17.6187 21.5294C17.7009 21.6347 17.8254 21.696 17.957 21.696C17.9775 21.696 17.998 21.6945 18.0183 21.6915C18.4638 21.6087 18.8931 21.4517 19.289 21.2267L20.2186 22.4174C20.2956 22.5159 20.41 22.5763 20.5331 22.5833C20.5411 22.5837 20.5493 22.5839 20.557 22.5839C20.6719 22.5839 20.7821 22.5372 20.8634 22.4539L20.9411 22.3744C21.0243 22.7095 21.043 23.0581 20.996 23.4006C20.7238 25.1143 18.9328 25.2476 18.3904 25.2476C16.1179 25.2476 14.9043 24.0994 13.7307 22.9889C12.7865 22.0955 11.8947 21.252 10.5903 21.252C9.23552 21.252 8.05793 22.0076 7.44031 23.2731C6.85423 24.474 6.93406 25.8764 7.64369 26.8457C7.78726 27.0419 8.0589 27.0816 8.25038 26.9345C8.44186 26.7875 8.48064 26.5092 8.33707 26.313C7.8225 25.6103 7.77492 24.573 8.21547 23.6703C8.68321 22.712 9.57101 22.1398 10.5904 22.1398C11.5558 22.1398 12.2561 22.8024 13.1428 23.6412C14.3171 24.7525 15.7791 26.1354 18.3904 26.1354C20.6387 26.1354 21.6524 24.7963 21.8516 23.543C21.9636 22.8382 21.8073 22.1502 21.6371 21.6614L22.1637 21.122C22.3198 20.962 22.3336 20.7074 22.1957 20.5307L21.103 19.1315C21.3238 18.5326 21.4326 17.8966 21.4237 17.2564C21.4237 15.9321 21.1251 15.0337 20.8851 14.3118C20.7091 13.7822 20.557 13.3248 20.557 12.817C20.557 11.7868 21.5699 11.0344 21.658 10.9709L25.9799 8.31423C26.1104 8.234 26.1903 8.08948 26.1903 7.93354V3.0502C26.1903 2.8626 26.0752 2.69524 25.9027 2.63211C25.2746 2.40223 19.7269 0.386475 18.3904 0.386475C17.0556 0.386475 15.6753 0.386475 12.5421 2.22077C10.424 3.46081 7.07067 3.47987 5.45916 3.48906C5.26414 3.49017 5.09528 3.49118 4.95427 3.49413H3.44043L2.53045 2.25108C2.28431 1.91651 1.8994 1.71934 1.49044 1.71834H0.623748C0.384466 1.71834 0.19043 1.91707 0.19043 2.16227V11.0412C0.19043 11.2864 0.384466 11.4852 0.623748 11.4852ZM15.7904 12.817V11.9291H15.966C16.1541 12.2004 16.3 12.4999 16.3984 12.817H15.7904ZM15.7904 16.3686V15.4807H16.6446C16.6283 15.7781 16.5973 16.0745 16.5518 16.3686H15.7904ZM21.2764 20.7752L20.593 21.4753L20.0053 20.7227C20.2525 20.5056 20.4721 20.2576 20.6589 19.9844L21.2764 20.7752ZM25.3237 7.68226L24.457 8.21501V3.0541C24.7578 3.16001 25.0487 3.26397 25.3237 3.36353V7.68226ZM5.464 4.37699C7.14941 4.36735 10.6564 4.34735 12.9721 2.99169C15.9055 1.2744 17.1125 1.2744 18.3904 1.2744C18.7913 1.2744 19.7914 1.5352 20.9904 1.90281V6.15785C20.9904 6.40305 21.1845 6.60179 21.4237 6.60179C21.6631 6.60179 21.8571 6.403 21.8571 6.15785V2.17536C22.4258 2.3585 23.0154 2.55534 23.5904 2.75251V8.74775L21.8571 9.81324V7.93359C21.8571 7.68839 21.663 7.48966 21.4237 7.48966C21.1844 7.48966 20.9904 7.68845 20.9904 7.93359V10.3761C20.5857 10.7109 19.6904 11.5899 19.6904 12.817C19.6904 13.4719 19.8723 14.0189 20.0648 14.5984C20.2955 15.2926 20.5571 16.0795 20.5571 17.2566C20.5571 19.8507 18.7791 20.5799 18.1278 20.7601L16.7282 18.9676C16.9752 18.3757 17.5238 16.8562 17.5238 15.0368C17.5238 13.9048 17.4122 13.0627 17.1727 12.3879C16.9544 11.7729 16.6327 11.2763 16.0969 10.7274C15.1935 9.80182 13.2067 8.85606 5.39047 8.82246V4.37743L5.464 4.37699ZM1.05712 2.6062H1.49044C1.62678 2.60654 1.75506 2.67223 1.83713 2.78377L2.87714 4.20438C2.95898 4.31615 3.08743 4.38194 3.22382 4.38194H4.51394C4.51323 4.49482 4.51263 4.62497 4.51225 4.76944C4.51111 5.21209 4.51154 5.82902 4.51356 6.60307C4.51579 7.46158 4.51937 8.31936 4.52166 8.82141H3.22377C3.08738 8.82141 2.95893 8.8872 2.87708 8.99897L1.83713 10.4197C1.75506 10.5313 1.62678 10.597 1.49044 10.5973H1.05712V2.6062Z" fill="#565656"/>
</svg>
