<svg width="16" height="26" viewBox="0 0 16 26" fill="none" xmlns="http://www.w3.org/2000/svg">
<path d="M0 0.386475V2.26239V2.63757V24.4982H1.46484V25.9989H4.38008V24.4982H11.0008V25.9989H13.916V24.4982H15.3809V22.9975H14.6484V23.7478H0.732422V13.5679H3.65063V12.8175H0.732422V2.63757H9.52143V1.8872H0.732422V1.13684H14.6484V1.8872H10.2539V2.63757H14.6484V12.8175H4.38301V13.5679H14.6484V22.2471H15.3809V2.63757V2.26239V0.386475H0ZM3.64766 25.2486H2.19727V24.4982H3.64766V25.2486ZM13.1836 25.2486H11.7332V24.4982H13.1836V25.2486Z" fill="#565656"/>
<path d="M6.20255 3.61121H1.83105V11.844H6.20255V3.61121ZM5.47012 4.36157V5.97351L3.65054 6.72382V8.2246L2.56348 8.67287V4.36157H5.47012ZM2.56348 11.0936V9.48166L4.38301 8.73135V7.23057L5.47017 6.7823V11.0936H2.56348Z" fill="#565656"/>
<path d="M10.6157 6.22681V9.22827C10.6157 9.84887 11.1086 10.3538 11.7143 10.3538C12.3201 10.3538 12.8129 9.84887 12.8129 9.22827V6.22681C12.8129 5.6062 12.3201 5.10126 11.7143 5.10126C11.1085 5.10126 10.6157 5.6062 10.6157 6.22681ZM12.0805 6.22681V9.22827C12.0805 9.43517 11.9163 9.60345 11.7143 9.60345C11.5124 9.60345 11.3481 9.43517 11.3481 9.22827V6.22681C11.3481 6.01991 11.5124 5.85162 11.7143 5.85162H11.7143C11.9163 5.85162 12.0805 6.01991 12.0805 6.22681Z" fill="#565656"/>
<path d="M12.8129 17.1571C12.8129 16.5365 12.3201 16.0316 11.7143 16.0316C11.1085 16.0316 10.6157 16.5365 10.6157 17.1571V20.1586C10.6157 20.7792 11.1086 21.2842 11.7143 21.2842C12.3201 21.2842 12.8129 20.7792 12.8129 20.1586V17.1571ZM12.0805 20.1586C12.0805 20.3655 11.9163 20.5338 11.7143 20.5338C11.5124 20.5338 11.3481 20.3655 11.3481 20.1586V17.1571C11.3481 16.9502 11.5124 16.782 11.7143 16.782H11.7143C11.9163 16.782 12.0805 16.9502 12.0805 17.1571V20.1586Z" fill="#565656"/>
<path d="M13.1836 3.38794H13.916V4.1387H13.1836V3.38794Z" fill="#565656"/>
<path d="M11.7188 3.38794H12.4512V4.1387H11.7188V3.38794Z" fill="#565656"/>
<path d="M8.41846 22.2471H11.3481V22.9979H8.41846V22.2471Z" fill="#565656"/>
<path d="M12.0806 22.2471H12.813V22.9979H12.0806V22.2471Z" fill="#565656"/>
</svg>
