<svg width="35" height="25" viewBox="0 0 35 25" fill="none" xmlns="http://www.w3.org/2000/svg">
<path d="M33.6238 0.238434H0.757096C0.444155 0.238434 0.19043 0.50602 0.19043 0.836058V21.1553C0.19043 21.4853 0.444155 21.7529 0.757096 21.7529H2.51376C2.82515 23.3702 4.32072 24.415 5.85426 24.0866C6.96925 23.8479 7.84071 22.9288 8.0671 21.7529H26.3138C26.6251 23.3702 28.1207 24.415 29.6543 24.0866C30.7692 23.8479 31.6407 22.9288 31.8671 21.7529H33.6238C33.9367 21.7529 34.1904 21.4853 34.1904 21.1553V0.836058C34.1904 0.50602 33.9367 0.238434 33.6238 0.238434ZM5.29043 22.9482C4.5702 22.9473 3.92838 22.4687 3.68733 21.7529H6.89353C6.65248 22.4687 6.01066 22.9473 5.29043 22.9482ZM29.0904 22.9482C28.3702 22.9473 27.7284 22.4687 27.4873 21.7529H30.6935C30.4525 22.4687 29.8107 22.9473 29.0904 22.9482ZM33.0571 20.5577H1.32376V1.43368H33.0571V20.5577Z" fill="#565656"/>
</svg>
