<svg width="20" height="21" viewBox="0 0 20 21" fill="none" xmlns="http://www.w3.org/2000/svg">
<g clip-path="url(#clip0)">
<path d="M13.0957 10.3696L19.756 14.5801V5.98123L13.0957 10.3696Z" fill="#A2A2A2"/>
<path d="M0 5.98123V14.5801L6.66027 10.3696L0 5.98123Z" fill="#A2A2A2"/>
<path d="M18.5214 3.47714H1.23482C0.61868 3.47714 0.129716 3.93647 0.0371094 4.52792L9.87812 11.0116L19.7191 4.52792C19.6265 3.93647 19.1376 3.47714 18.5214 3.47714Z" fill="#A2A2A2"/>
<path d="M11.9648 11.1153L10.2177 12.2661C10.1139 12.334 9.99663 12.3674 9.87809 12.3674C9.75956 12.3674 9.64225 12.334 9.53854 12.2661L7.79135 11.1141L0.0395508 16.0173C0.134627 16.6038 0.621121 17.0595 1.2348 17.0595H18.5214C19.1351 17.0595 19.6216 16.6038 19.7166 16.0173L11.9648 11.1153Z" fill="#A2A2A2"/>
</g>
<defs>
<clipPath id="clip0">
<rect width="19.7561" height="19.7561" fill="white" transform="translate(0 0.390259)"/>
</clipPath>
</defs>
</svg>
